<mxfile host="app.diagrams.net" modified="2023-06-12T08:45:16.664Z" agent="Mozilla/5.0 (Windows NT 10.0; Win64; x64) AppleWebKit/537.36 (KHTML, like Gecko) Chrome/114.0.0.0 Safari/537.36" etag="2-73k4adJehqfyeSDXK1" version="21.3.8" type="device">
  <diagram name="Page-1" id="RcDXsHFpMfbO1oQu4QGJ">
    <mxGraphModel dx="2221" dy="1900" grid="1" gridSize="10" guides="1" tooltips="1" connect="1" arrows="1" fold="1" page="1" pageScale="1" pageWidth="827" pageHeight="1169" math="0" shadow="0">
      <root>
        <mxCell id="0" />
        <mxCell id="1" parent="0" />
        <mxCell id="c9Lt9Gjsiru4E0_DWyST-29" value="" style="group;rounded=0;" vertex="1" connectable="0" parent="1">
          <mxGeometry x="-276" y="-90" width="276" height="560" as="geometry" />
        </mxCell>
        <mxCell id="cRrsICpqmRjQUYzMtv-0-9" value="" style="rounded=0;whiteSpace=wrap;html=1;" parent="c9Lt9Gjsiru4E0_DWyST-29" vertex="1">
          <mxGeometry width="256" height="560" as="geometry" />
        </mxCell>
        <mxCell id="c9Lt9Gjsiru4E0_DWyST-28" value="" style="group" vertex="1" connectable="0" parent="c9Lt9Gjsiru4E0_DWyST-29">
          <mxGeometry x="25" width="233" height="560" as="geometry" />
        </mxCell>
        <mxCell id="c9Lt9Gjsiru4E0_DWyST-26" value="" style="group" vertex="1" connectable="0" parent="c9Lt9Gjsiru4E0_DWyST-28">
          <mxGeometry y="-60" width="233" height="575" as="geometry" />
        </mxCell>
        <mxCell id="c9Lt9Gjsiru4E0_DWyST-24" value="" style="group" vertex="1" connectable="0" parent="c9Lt9Gjsiru4E0_DWyST-26">
          <mxGeometry x="-10" y="180" width="226" height="200" as="geometry" />
        </mxCell>
        <mxCell id="cRrsICpqmRjQUYzMtv-0-15" value="" style="rounded=0;whiteSpace=wrap;html=1;container=0;" parent="c9Lt9Gjsiru4E0_DWyST-24" vertex="1">
          <mxGeometry width="226" height="200" as="geometry" />
        </mxCell>
        <mxCell id="cRrsICpqmRjQUYzMtv-0-31" value="" style="rounded=0;whiteSpace=wrap;html=1;" parent="c9Lt9Gjsiru4E0_DWyST-24" vertex="1">
          <mxGeometry x="22" y="115" width="56" height="50" as="geometry" />
        </mxCell>
        <mxCell id="cRrsICpqmRjQUYzMtv-0-32" value="" style="rounded=0;whiteSpace=wrap;html=1;" parent="c9Lt9Gjsiru4E0_DWyST-24" vertex="1">
          <mxGeometry x="82" y="25" width="56" height="50" as="geometry" />
        </mxCell>
        <mxCell id="cRrsICpqmRjQUYzMtv-0-33" value="" style="rounded=0;whiteSpace=wrap;html=1;" parent="c9Lt9Gjsiru4E0_DWyST-24" vertex="1">
          <mxGeometry x="140" y="115" width="56" height="50" as="geometry" />
        </mxCell>
        <mxCell id="cRrsICpqmRjQUYzMtv-0-34" value="&lt;font style=&quot;font-size: 7px;&quot;&gt;Controller&lt;/font&gt;" style="text;html=1;strokeColor=none;fillColor=none;align=center;verticalAlign=middle;whiteSpace=wrap;rounded=0;" parent="c9Lt9Gjsiru4E0_DWyST-24" vertex="1">
          <mxGeometry x="86" y="35" width="48" height="30" as="geometry" />
        </mxCell>
        <mxCell id="cRrsICpqmRjQUYzMtv-0-35" value="&lt;font style=&quot;font-size: 7px;&quot;&gt;View&lt;/font&gt;" style="text;html=1;strokeColor=none;fillColor=none;align=center;verticalAlign=middle;whiteSpace=wrap;rounded=0;" parent="c9Lt9Gjsiru4E0_DWyST-24" vertex="1">
          <mxGeometry x="26" y="125" width="48" height="30" as="geometry" />
        </mxCell>
        <mxCell id="cRrsICpqmRjQUYzMtv-0-36" value="&lt;font style=&quot;font-size: 7px;&quot;&gt;Model&lt;/font&gt;" style="text;html=1;strokeColor=none;fillColor=none;align=center;verticalAlign=middle;whiteSpace=wrap;rounded=0;" parent="c9Lt9Gjsiru4E0_DWyST-24" vertex="1">
          <mxGeometry x="144" y="125" width="48" height="30" as="geometry" />
        </mxCell>
        <mxCell id="cRrsICpqmRjQUYzMtv-0-38" value="" style="endArrow=classic;html=1;rounded=0;entryX=1;entryY=0.5;entryDx=0;entryDy=0;exitX=0;exitY=0.5;exitDx=0;exitDy=0;" parent="c9Lt9Gjsiru4E0_DWyST-24" source="cRrsICpqmRjQUYzMtv-0-33" target="cRrsICpqmRjQUYzMtv-0-31" edge="1">
          <mxGeometry width="50" height="50" relative="1" as="geometry">
            <mxPoint x="130" y="125" as="sourcePoint" />
            <mxPoint x="180" y="75" as="targetPoint" />
          </mxGeometry>
        </mxCell>
        <mxCell id="cRrsICpqmRjQUYzMtv-0-39" value="" style="endArrow=classic;html=1;rounded=0;exitX=1;exitY=0.5;exitDx=0;exitDy=0;entryX=0.5;entryY=0;entryDx=0;entryDy=0;" parent="c9Lt9Gjsiru4E0_DWyST-24" source="cRrsICpqmRjQUYzMtv-0-32" target="cRrsICpqmRjQUYzMtv-0-33" edge="1">
          <mxGeometry width="50" height="50" relative="1" as="geometry">
            <mxPoint x="130" y="125" as="sourcePoint" />
            <mxPoint x="180" y="75" as="targetPoint" />
            <Array as="points">
              <mxPoint x="168" y="50" />
            </Array>
          </mxGeometry>
        </mxCell>
        <mxCell id="cRrsICpqmRjQUYzMtv-0-40" value="" style="endArrow=classic;html=1;rounded=0;entryX=0;entryY=0.5;entryDx=0;entryDy=0;exitX=0.25;exitY=0;exitDx=0;exitDy=0;" parent="c9Lt9Gjsiru4E0_DWyST-24" source="cRrsICpqmRjQUYzMtv-0-31" target="cRrsICpqmRjQUYzMtv-0-32" edge="1">
          <mxGeometry width="50" height="50" relative="1" as="geometry">
            <mxPoint x="50" y="115" as="sourcePoint" />
            <mxPoint x="180" y="75" as="targetPoint" />
            <Array as="points">
              <mxPoint x="36" y="50" />
            </Array>
          </mxGeometry>
        </mxCell>
        <mxCell id="cRrsICpqmRjQUYzMtv-0-41" value="" style="endArrow=classic;html=1;rounded=0;exitX=0;exitY=0.75;exitDx=0;exitDy=0;entryX=0.75;entryY=0;entryDx=0;entryDy=0;" parent="c9Lt9Gjsiru4E0_DWyST-24" source="cRrsICpqmRjQUYzMtv-0-32" target="cRrsICpqmRjQUYzMtv-0-31" edge="1">
          <mxGeometry width="50" height="50" relative="1" as="geometry">
            <mxPoint x="50" y="75" as="sourcePoint" />
            <mxPoint x="100" y="25" as="targetPoint" />
            <Array as="points">
              <mxPoint x="64" y="63" />
            </Array>
          </mxGeometry>
        </mxCell>
        <mxCell id="cRrsICpqmRjQUYzMtv-0-42" value="&lt;font style=&quot;font-size: 7px;&quot;&gt;Updates&lt;/font&gt;" style="text;html=1;strokeColor=none;fillColor=none;align=center;verticalAlign=middle;whiteSpace=wrap;rounded=0;" parent="c9Lt9Gjsiru4E0_DWyST-24" vertex="1">
          <mxGeometry x="78" y="115" width="60" height="30" as="geometry" />
        </mxCell>
        <mxCell id="cRrsICpqmRjQUYzMtv-0-43" value="&lt;font style=&quot;font-size: 7px;&quot;&gt;Manipulates&lt;/font&gt;" style="text;html=1;strokeColor=none;fillColor=none;align=center;verticalAlign=middle;whiteSpace=wrap;rounded=0;rotation=0;" parent="c9Lt9Gjsiru4E0_DWyST-24" vertex="1">
          <mxGeometry x="160" y="35" width="60" height="30" as="geometry" />
        </mxCell>
        <mxCell id="cRrsICpqmRjQUYzMtv-0-44" value="&lt;p style=&quot;line-height: 40%;&quot;&gt;&lt;font style=&quot;font-size: 7px;&quot;&gt;Possible direct update&lt;/font&gt;&lt;/p&gt;" style="text;html=1;strokeColor=none;fillColor=none;align=center;verticalAlign=middle;whiteSpace=wrap;rounded=0;rotation=0;" parent="c9Lt9Gjsiru4E0_DWyST-24" vertex="1">
          <mxGeometry x="59" y="77" width="60" height="30" as="geometry" />
        </mxCell>
        <mxCell id="cRrsICpqmRjQUYzMtv-0-45" value="&lt;p style=&quot;line-height: 40%;&quot;&gt;&lt;font style=&quot;font-size: 7px;&quot;&gt;Sends user input&lt;/font&gt;&lt;/p&gt;" style="text;html=1;strokeColor=none;fillColor=none;align=center;verticalAlign=middle;whiteSpace=wrap;rounded=0;rotation=0;" parent="c9Lt9Gjsiru4E0_DWyST-24" vertex="1">
          <mxGeometry x="10" y="27" width="60" height="30" as="geometry" />
        </mxCell>
        <mxCell id="cRrsICpqmRjQUYzMtv-0-28" value="Client" style="text;html=1;strokeColor=none;fillColor=none;align=center;verticalAlign=middle;whiteSpace=wrap;rounded=0;" parent="c9Lt9Gjsiru4E0_DWyST-24" vertex="1">
          <mxGeometry x="-22" y="5" width="140" height="30" as="geometry" />
        </mxCell>
        <mxCell id="cRrsICpqmRjQUYzMtv-0-17" value="client" style="rounded=1;whiteSpace=wrap;html=1;" parent="c9Lt9Gjsiru4E0_DWyST-29" vertex="1">
          <mxGeometry x="80" y="407" width="96" height="55" as="geometry" />
        </mxCell>
        <mxCell id="cRrsICpqmRjQUYzMtv-0-18" value="" style="endArrow=none;dashed=1;html=1;dashPattern=1 3;strokeWidth=2;rounded=0;entryX=0.5;entryY=1;entryDx=0;entryDy=0;exitX=0.5;exitY=1;exitDx=0;exitDy=0;" parent="c9Lt9Gjsiru4E0_DWyST-29" target="cRrsICpqmRjQUYzMtv-0-17" edge="1" source="cRrsICpqmRjQUYzMtv-0-9">
          <mxGeometry width="50" height="50" relative="1" as="geometry">
            <mxPoint x="147.96629213483175" y="500" as="sourcePoint" />
            <mxPoint x="150" y="375" as="targetPoint" />
          </mxGeometry>
        </mxCell>
        <mxCell id="cRrsICpqmRjQUYzMtv-0-12" value="Presentation Layer" style="text;html=1;strokeColor=none;fillColor=none;align=center;verticalAlign=middle;whiteSpace=wrap;rounded=0;" parent="c9Lt9Gjsiru4E0_DWyST-29" vertex="1">
          <mxGeometry x="-7" width="140" height="30" as="geometry" />
        </mxCell>
        <mxCell id="c9Lt9Gjsiru4E0_DWyST-319" value="&lt;font style=&quot;font-size: 7px;&quot;&gt;Establish Connection&lt;/font&gt;" style="text;html=1;strokeColor=none;fillColor=none;align=center;verticalAlign=middle;whiteSpace=wrap;rounded=0;" vertex="1" parent="c9Lt9Gjsiru4E0_DWyST-29">
          <mxGeometry x="176" y="26" width="70" height="30" as="geometry" />
        </mxCell>
        <mxCell id="c9Lt9Gjsiru4E0_DWyST-320" value="&lt;font style=&quot;font-size: 7px;&quot;&gt;Real-time updates&lt;/font&gt;" style="text;html=1;strokeColor=none;fillColor=none;align=center;verticalAlign=middle;whiteSpace=wrap;rounded=0;" vertex="1" parent="c9Lt9Gjsiru4E0_DWyST-29">
          <mxGeometry x="166" y="56" width="70" height="30" as="geometry" />
        </mxCell>
        <mxCell id="c9Lt9Gjsiru4E0_DWyST-17" value="" style="group" vertex="1" connectable="0" parent="1">
          <mxGeometry x="530" y="-90" width="256" height="560" as="geometry" />
        </mxCell>
        <mxCell id="cRrsICpqmRjQUYzMtv-0-11" value="" style="rounded=0;whiteSpace=wrap;html=1;" parent="c9Lt9Gjsiru4E0_DWyST-17" vertex="1">
          <mxGeometry width="256" height="560" as="geometry" />
        </mxCell>
        <mxCell id="cRrsICpqmRjQUYzMtv-0-14" value="Data Access Layer" style="text;html=1;strokeColor=none;fillColor=none;align=center;verticalAlign=middle;whiteSpace=wrap;rounded=0;" parent="c9Lt9Gjsiru4E0_DWyST-17" vertex="1">
          <mxGeometry x="10" width="140" height="30" as="geometry" />
        </mxCell>
        <mxCell id="c9Lt9Gjsiru4E0_DWyST-340" value="" style="rounded=0;whiteSpace=wrap;html=1;" vertex="1" parent="c9Lt9Gjsiru4E0_DWyST-17">
          <mxGeometry x="30" y="60" width="180" height="320" as="geometry" />
        </mxCell>
        <mxCell id="cRrsICpqmRjQUYzMtv-0-60" value="Database" style="strokeWidth=2;html=1;shape=mxgraph.flowchart.database;whiteSpace=wrap;" parent="c9Lt9Gjsiru4E0_DWyST-17" vertex="1">
          <mxGeometry x="60" y="95" width="120" height="115" as="geometry" />
        </mxCell>
        <mxCell id="cRrsICpqmRjQUYzMtv-0-61" value="&lt;font style=&quot;font-size: 7px;&quot;&gt;Key/Value pair store&lt;br&gt;&lt;/font&gt;" style="text;html=1;strokeColor=none;fillColor=none;align=center;verticalAlign=middle;whiteSpace=wrap;rounded=0;rotation=0;" parent="c9Lt9Gjsiru4E0_DWyST-17" vertex="1">
          <mxGeometry x="80" y="160" width="80" height="30" as="geometry" />
        </mxCell>
        <mxCell id="cRrsICpqmRjQUYzMtv-0-65" value="AWS S3 Bucket" style="strokeWidth=2;html=1;shape=mxgraph.flowchart.database;whiteSpace=wrap;" parent="c9Lt9Gjsiru4E0_DWyST-17" vertex="1">
          <mxGeometry x="60" y="240" width="120" height="115" as="geometry" />
        </mxCell>
        <mxCell id="cRrsICpqmRjQUYzMtv-0-66" value="&lt;font style=&quot;font-size: 7px;&quot;&gt;Media Store&lt;br&gt;&lt;/font&gt;" style="text;html=1;strokeColor=none;fillColor=none;align=center;verticalAlign=middle;whiteSpace=wrap;rounded=0;rotation=0;" parent="c9Lt9Gjsiru4E0_DWyST-17" vertex="1">
          <mxGeometry x="80" y="310" width="80" height="30" as="geometry" />
        </mxCell>
        <mxCell id="cRrsICpqmRjQUYzMtv-0-67" value="Recommendation Store" style="strokeWidth=2;html=1;shape=mxgraph.flowchart.database;whiteSpace=wrap;fillColor=#a20025;fontColor=#ffffff;strokeColor=#6F0000;" parent="c9Lt9Gjsiru4E0_DWyST-17" vertex="1">
          <mxGeometry x="60" y="440" width="120" height="115" as="geometry" />
        </mxCell>
        <mxCell id="c9Lt9Gjsiru4E0_DWyST-341" value="Data Store" style="text;html=1;strokeColor=none;fillColor=none;align=center;verticalAlign=middle;whiteSpace=wrap;rounded=0;" vertex="1" parent="c9Lt9Gjsiru4E0_DWyST-17">
          <mxGeometry x="40" y="60" width="60" height="30" as="geometry" />
        </mxCell>
        <mxCell id="c9Lt9Gjsiru4E0_DWyST-346" value="&lt;font style=&quot;font-size: 7px;&quot;&gt;update&amp;nbsp; attributes&lt;/font&gt;" style="text;html=1;strokeColor=none;fillColor=none;align=center;verticalAlign=middle;whiteSpace=wrap;rounded=0;" vertex="1" parent="c9Lt9Gjsiru4E0_DWyST-17">
          <mxGeometry x="25" y="400" width="90" height="30" as="geometry" />
        </mxCell>
        <mxCell id="c9Lt9Gjsiru4E0_DWyST-347" value="&lt;font style=&quot;font-size: 7px;&quot;&gt;query responses&lt;/font&gt;" style="text;html=1;strokeColor=none;fillColor=none;align=center;verticalAlign=middle;whiteSpace=wrap;rounded=0;" vertex="1" parent="c9Lt9Gjsiru4E0_DWyST-17">
          <mxGeometry x="-80" y="260" width="90" height="30" as="geometry" />
        </mxCell>
        <mxCell id="c9Lt9Gjsiru4E0_DWyST-348" value="" style="group" vertex="1" connectable="0" parent="c9Lt9Gjsiru4E0_DWyST-17">
          <mxGeometry width="256" height="560" as="geometry" />
        </mxCell>
        <mxCell id="c9Lt9Gjsiru4E0_DWyST-349" value="" style="rounded=0;whiteSpace=wrap;html=1;" vertex="1" parent="c9Lt9Gjsiru4E0_DWyST-348">
          <mxGeometry width="256" height="560" as="geometry" />
        </mxCell>
        <mxCell id="c9Lt9Gjsiru4E0_DWyST-350" value="Data Access Layer" style="text;html=1;strokeColor=none;fillColor=none;align=center;verticalAlign=middle;whiteSpace=wrap;rounded=0;" vertex="1" parent="c9Lt9Gjsiru4E0_DWyST-348">
          <mxGeometry x="10" width="140" height="30" as="geometry" />
        </mxCell>
        <mxCell id="c9Lt9Gjsiru4E0_DWyST-351" value="" style="rounded=0;whiteSpace=wrap;html=1;" vertex="1" parent="c9Lt9Gjsiru4E0_DWyST-348">
          <mxGeometry x="60" y="60" width="180" height="320" as="geometry" />
        </mxCell>
        <mxCell id="c9Lt9Gjsiru4E0_DWyST-352" value="Database" style="strokeWidth=2;html=1;shape=mxgraph.flowchart.database;whiteSpace=wrap;" vertex="1" parent="c9Lt9Gjsiru4E0_DWyST-348">
          <mxGeometry x="90" y="95" width="120" height="115" as="geometry" />
        </mxCell>
        <mxCell id="c9Lt9Gjsiru4E0_DWyST-353" value="&lt;font style=&quot;font-size: 7px;&quot;&gt;Key/Value pair store&lt;br&gt;&lt;/font&gt;" style="text;html=1;strokeColor=none;fillColor=none;align=center;verticalAlign=middle;whiteSpace=wrap;rounded=0;rotation=0;" vertex="1" parent="c9Lt9Gjsiru4E0_DWyST-348">
          <mxGeometry x="110" y="160" width="80" height="30" as="geometry" />
        </mxCell>
        <mxCell id="c9Lt9Gjsiru4E0_DWyST-354" value="AWS S3 Bucket" style="strokeWidth=2;html=1;shape=mxgraph.flowchart.database;whiteSpace=wrap;" vertex="1" parent="c9Lt9Gjsiru4E0_DWyST-348">
          <mxGeometry x="90" y="240" width="120" height="115" as="geometry" />
        </mxCell>
        <mxCell id="c9Lt9Gjsiru4E0_DWyST-355" value="&lt;font style=&quot;font-size: 7px;&quot;&gt;Media Store&lt;br&gt;&lt;/font&gt;" style="text;html=1;strokeColor=none;fillColor=none;align=center;verticalAlign=middle;whiteSpace=wrap;rounded=0;rotation=0;" vertex="1" parent="c9Lt9Gjsiru4E0_DWyST-348">
          <mxGeometry x="110" y="310" width="80" height="30" as="geometry" />
        </mxCell>
        <mxCell id="c9Lt9Gjsiru4E0_DWyST-356" value="Recommendation Store" style="strokeWidth=2;html=1;shape=mxgraph.flowchart.database;whiteSpace=wrap;fillColor=#a20025;fontColor=#ffffff;strokeColor=#6F0000;" vertex="1" parent="c9Lt9Gjsiru4E0_DWyST-348">
          <mxGeometry x="60" y="440" width="120" height="115" as="geometry" />
        </mxCell>
        <mxCell id="c9Lt9Gjsiru4E0_DWyST-357" value="Data Store" style="text;html=1;strokeColor=none;fillColor=none;align=center;verticalAlign=middle;whiteSpace=wrap;rounded=0;" vertex="1" parent="c9Lt9Gjsiru4E0_DWyST-348">
          <mxGeometry x="70" y="60" width="60" height="30" as="geometry" />
        </mxCell>
        <mxCell id="c9Lt9Gjsiru4E0_DWyST-358" value="&lt;font style=&quot;font-size: 7px;&quot;&gt;update&amp;nbsp; attributes&lt;/font&gt;" style="text;html=1;strokeColor=none;fillColor=none;align=center;verticalAlign=middle;whiteSpace=wrap;rounded=0;" vertex="1" parent="c9Lt9Gjsiru4E0_DWyST-348">
          <mxGeometry x="54" y="405" width="90" height="30" as="geometry" />
        </mxCell>
        <mxCell id="c9Lt9Gjsiru4E0_DWyST-344" value="&lt;font style=&quot;font-size: 7px;&quot;&gt;query responses&lt;/font&gt;" style="text;html=1;strokeColor=none;fillColor=none;align=center;verticalAlign=middle;whiteSpace=wrap;rounded=0;" vertex="1" parent="c9Lt9Gjsiru4E0_DWyST-348">
          <mxGeometry x="-13" y="211" width="90" height="30" as="geometry" />
        </mxCell>
        <mxCell id="cRrsICpqmRjQUYzMtv-0-10" value="" style="rounded=0;whiteSpace=wrap;html=1;" parent="1" vertex="1">
          <mxGeometry x="-20" y="-90" width="550" height="560" as="geometry" />
        </mxCell>
        <mxCell id="cRrsICpqmRjQUYzMtv-0-13" value="Logic Layer" style="text;html=1;strokeColor=none;fillColor=none;align=center;verticalAlign=middle;whiteSpace=wrap;rounded=0;" parent="1" vertex="1">
          <mxGeometry x="-45" y="-90" width="140" height="30" as="geometry" />
        </mxCell>
        <mxCell id="c9Lt9Gjsiru4E0_DWyST-35" style="edgeStyle=orthogonalEdgeStyle;rounded=0;orthogonalLoop=1;jettySize=auto;html=1;entryX=0.5;entryY=0;entryDx=0;entryDy=0;" edge="1" parent="1" source="c9Lt9Gjsiru4E0_DWyST-31">
          <mxGeometry relative="1" as="geometry">
            <mxPoint x="425" y="350" as="targetPoint" />
          </mxGeometry>
        </mxCell>
        <mxCell id="c9Lt9Gjsiru4E0_DWyST-50" style="edgeStyle=orthogonalEdgeStyle;rounded=0;orthogonalLoop=1;jettySize=auto;html=1;entryX=0;entryY=0.5;entryDx=0;entryDy=0;entryPerimeter=0;" edge="1" parent="1" source="c9Lt9Gjsiru4E0_DWyST-42" target="cRrsICpqmRjQUYzMtv-0-67">
          <mxGeometry relative="1" as="geometry">
            <Array as="points">
              <mxPoint x="550" y="408" />
              <mxPoint x="550" y="408" />
            </Array>
          </mxGeometry>
        </mxCell>
        <mxCell id="c9Lt9Gjsiru4E0_DWyST-42" value="Recommendation algorithm" style="rounded=0;whiteSpace=wrap;html=1;" vertex="1" parent="1">
          <mxGeometry x="240" y="390" width="120" height="60" as="geometry" />
        </mxCell>
        <mxCell id="c9Lt9Gjsiru4E0_DWyST-49" style="edgeStyle=orthogonalEdgeStyle;rounded=0;orthogonalLoop=1;jettySize=auto;html=1;entryX=0;entryY=0.5;entryDx=0;entryDy=0;" edge="1" parent="1" source="c9Lt9Gjsiru4E0_DWyST-46" target="c9Lt9Gjsiru4E0_DWyST-42">
          <mxGeometry relative="1" as="geometry" />
        </mxCell>
        <mxCell id="c9Lt9Gjsiru4E0_DWyST-332" style="edgeStyle=orthogonalEdgeStyle;rounded=0;orthogonalLoop=1;jettySize=auto;html=1;entryX=0.5;entryY=1;entryDx=0;entryDy=0;" edge="1" parent="1" source="c9Lt9Gjsiru4E0_DWyST-46" target="c9Lt9Gjsiru4E0_DWyST-235">
          <mxGeometry relative="1" as="geometry">
            <Array as="points">
              <mxPoint x="60" y="260" />
              <mxPoint x="60" y="260" />
            </Array>
          </mxGeometry>
        </mxCell>
        <mxCell id="c9Lt9Gjsiru4E0_DWyST-46" value="notifier" style="rounded=0;whiteSpace=wrap;html=1;" vertex="1" parent="1">
          <mxGeometry x="30" y="290" width="120" height="60" as="geometry" />
        </mxCell>
        <mxCell id="c9Lt9Gjsiru4E0_DWyST-51" style="edgeStyle=orthogonalEdgeStyle;rounded=0;orthogonalLoop=1;jettySize=auto;html=1;entryX=1;entryY=0.75;entryDx=0;entryDy=0;" edge="1" parent="1" source="cRrsICpqmRjQUYzMtv-0-67" target="c9Lt9Gjsiru4E0_DWyST-42">
          <mxGeometry relative="1" as="geometry">
            <Array as="points">
              <mxPoint x="604" y="435" />
            </Array>
          </mxGeometry>
        </mxCell>
        <mxCell id="c9Lt9Gjsiru4E0_DWyST-57" value="MVC" style="text;html=1;strokeColor=#006EAF;fillColor=#1ba1e2;align=center;verticalAlign=middle;whiteSpace=wrap;rounded=0;fontColor=#ffffff;" vertex="1" parent="1">
          <mxGeometry x="-343" y="40" width="60" height="30" as="geometry" />
        </mxCell>
        <mxCell id="c9Lt9Gjsiru4E0_DWyST-59" value="Multi-tier" style="text;html=1;strokeColor=#006EAF;fillColor=#1ba1e2;align=center;verticalAlign=middle;whiteSpace=wrap;rounded=0;fontColor=#ffffff;" vertex="1" parent="1">
          <mxGeometry x="70" y="-80" width="60" height="30" as="geometry" />
        </mxCell>
        <mxCell id="c9Lt9Gjsiru4E0_DWyST-60" value="Monolithic" style="text;html=1;strokeColor=#006EAF;fillColor=#1ba1e2;align=center;verticalAlign=middle;whiteSpace=wrap;rounded=0;fontColor=#ffffff;" vertex="1" parent="1">
          <mxGeometry x="-344" y="-100" width="60" height="30" as="geometry" />
        </mxCell>
        <mxCell id="c9Lt9Gjsiru4E0_DWyST-151" value="Change round edges to square?" style="rounded=0;whiteSpace=wrap;html=1;fillColor=#a20025;fontColor=#ffffff;strokeColor=#6F0000;" vertex="1" parent="1">
          <mxGeometry x="-610" y="345" width="120" height="60" as="geometry" />
        </mxCell>
        <mxCell id="c9Lt9Gjsiru4E0_DWyST-152" value="" style="rounded=0;whiteSpace=wrap;html=1;" vertex="1" parent="1">
          <mxGeometry x="-813" y="680" width="813" height="470" as="geometry" />
        </mxCell>
        <mxCell id="c9Lt9Gjsiru4E0_DWyST-197" style="edgeStyle=orthogonalEdgeStyle;rounded=0;orthogonalLoop=1;jettySize=auto;html=1;entryX=0;entryY=0.25;entryDx=0;entryDy=0;exitX=1;exitY=0.25;exitDx=0;exitDy=0;" edge="1" parent="1" source="c9Lt9Gjsiru4E0_DWyST-180" target="c9Lt9Gjsiru4E0_DWyST-183">
          <mxGeometry relative="1" as="geometry">
            <Array as="points">
              <mxPoint x="-620" y="754" />
              <mxPoint x="-600" y="754" />
            </Array>
          </mxGeometry>
        </mxCell>
        <mxCell id="c9Lt9Gjsiru4E0_DWyST-180" value="client" style="rounded=1;whiteSpace=wrap;html=1;" vertex="1" parent="1">
          <mxGeometry x="-790" y="740" width="96" height="55" as="geometry" />
        </mxCell>
        <mxCell id="c9Lt9Gjsiru4E0_DWyST-188" value="" style="group" vertex="1" connectable="0" parent="1">
          <mxGeometry x="-600" y="729.9949999999999" width="96" height="94.875" as="geometry" />
        </mxCell>
        <mxCell id="c9Lt9Gjsiru4E0_DWyST-183" value="" style="rounded=0;whiteSpace=wrap;html=1;" vertex="1" parent="c9Lt9Gjsiru4E0_DWyST-188">
          <mxGeometry width="96" height="94.875" as="geometry" />
        </mxCell>
        <mxCell id="c9Lt9Gjsiru4E0_DWyST-184" value="&lt;font size=&quot;1&quot;&gt;Web Server&lt;/font&gt;" style="text;html=1;strokeColor=none;fillColor=none;align=center;verticalAlign=middle;whiteSpace=wrap;rounded=0;" vertex="1" parent="c9Lt9Gjsiru4E0_DWyST-188">
          <mxGeometry y="0.005000000000002558" width="68" height="24.75" as="geometry" />
        </mxCell>
        <mxCell id="c9Lt9Gjsiru4E0_DWyST-185" value="" style="ellipse;shape=cloud;whiteSpace=wrap;html=1;fillColor=#a20025;fontColor=#ffffff;strokeColor=#6F0000;" vertex="1" parent="c9Lt9Gjsiru4E0_DWyST-188">
          <mxGeometry x="8" y="24.75" width="80" height="63.9375" as="geometry" />
        </mxCell>
        <mxCell id="c9Lt9Gjsiru4E0_DWyST-186" value="&lt;font style=&quot;font-size: 10px;&quot;&gt;AWS WebSocket API&lt;/font&gt;" style="text;html=1;strokeColor=none;fillColor=none;align=center;verticalAlign=middle;whiteSpace=wrap;rounded=0;" vertex="1" parent="c9Lt9Gjsiru4E0_DWyST-188">
          <mxGeometry x="25.6" y="45.99374999999999" width="48" height="24.75" as="geometry" />
        </mxCell>
        <mxCell id="c9Lt9Gjsiru4E0_DWyST-200" style="edgeStyle=orthogonalEdgeStyle;rounded=0;orthogonalLoop=1;jettySize=auto;html=1;entryX=0;entryY=0.5;entryDx=0;entryDy=0;" edge="1" parent="1" source="c9Lt9Gjsiru4E0_DWyST-189" target="c9Lt9Gjsiru4E0_DWyST-190">
          <mxGeometry relative="1" as="geometry">
            <Array as="points">
              <mxPoint x="-270" y="780" />
              <mxPoint x="-270" y="780" />
            </Array>
          </mxGeometry>
        </mxCell>
        <mxCell id="c9Lt9Gjsiru4E0_DWyST-189" value="interface" style="rounded=0;whiteSpace=wrap;html=1;" vertex="1" parent="1">
          <mxGeometry x="-420" y="747.43" width="120" height="60" as="geometry" />
        </mxCell>
        <mxCell id="c9Lt9Gjsiru4E0_DWyST-201" style="edgeStyle=orthogonalEdgeStyle;rounded=0;orthogonalLoop=1;jettySize=auto;html=1;" edge="1" parent="1" source="c9Lt9Gjsiru4E0_DWyST-190" target="c9Lt9Gjsiru4E0_DWyST-191">
          <mxGeometry relative="1" as="geometry" />
        </mxCell>
        <mxCell id="c9Lt9Gjsiru4E0_DWyST-202" style="edgeStyle=orthogonalEdgeStyle;rounded=0;orthogonalLoop=1;jettySize=auto;html=1;entryX=1;entryY=0.5;entryDx=0;entryDy=0;" edge="1" parent="1" source="c9Lt9Gjsiru4E0_DWyST-190" target="c9Lt9Gjsiru4E0_DWyST-193">
          <mxGeometry relative="1" as="geometry">
            <Array as="points">
              <mxPoint x="-190" y="830" />
              <mxPoint x="-255" y="830" />
              <mxPoint x="-255" y="910" />
            </Array>
          </mxGeometry>
        </mxCell>
        <mxCell id="c9Lt9Gjsiru4E0_DWyST-190" value="message broker" style="rounded=0;whiteSpace=wrap;html=1;" vertex="1" parent="1">
          <mxGeometry x="-210" y="750" width="120" height="60" as="geometry" />
        </mxCell>
        <mxCell id="c9Lt9Gjsiru4E0_DWyST-203" style="edgeStyle=orthogonalEdgeStyle;rounded=0;orthogonalLoop=1;jettySize=auto;html=1;entryX=0.5;entryY=0;entryDx=0;entryDy=0;" edge="1" parent="1" source="c9Lt9Gjsiru4E0_DWyST-191" target="c9Lt9Gjsiru4E0_DWyST-192">
          <mxGeometry relative="1" as="geometry" />
        </mxCell>
        <mxCell id="c9Lt9Gjsiru4E0_DWyST-191" value="services" style="rounded=0;whiteSpace=wrap;html=1;" vertex="1" parent="1">
          <mxGeometry x="-210" y="880" width="120" height="60" as="geometry" />
        </mxCell>
        <mxCell id="c9Lt9Gjsiru4E0_DWyST-204" style="edgeStyle=orthogonalEdgeStyle;rounded=0;orthogonalLoop=1;jettySize=auto;html=1;entryX=1;entryY=0.5;entryDx=0;entryDy=0;" edge="1" parent="1" source="c9Lt9Gjsiru4E0_DWyST-192" target="c9Lt9Gjsiru4E0_DWyST-190">
          <mxGeometry relative="1" as="geometry">
            <Array as="points">
              <mxPoint x="-50" y="1060" />
              <mxPoint x="-50" y="780" />
            </Array>
          </mxGeometry>
        </mxCell>
        <mxCell id="c9Lt9Gjsiru4E0_DWyST-205" style="edgeStyle=orthogonalEdgeStyle;rounded=0;orthogonalLoop=1;jettySize=auto;html=1;entryX=1.004;entryY=0.619;entryDx=0;entryDy=0;entryPerimeter=0;" edge="1" parent="1" source="c9Lt9Gjsiru4E0_DWyST-192" target="c9Lt9Gjsiru4E0_DWyST-194">
          <mxGeometry relative="1" as="geometry">
            <Array as="points">
              <mxPoint x="-392" y="1074" />
            </Array>
          </mxGeometry>
        </mxCell>
        <mxCell id="c9Lt9Gjsiru4E0_DWyST-192" value="Event handlers" style="rounded=0;whiteSpace=wrap;html=1;" vertex="1" parent="1">
          <mxGeometry x="-313" y="1030" width="120" height="60" as="geometry" />
        </mxCell>
        <mxCell id="c9Lt9Gjsiru4E0_DWyST-207" style="edgeStyle=orthogonalEdgeStyle;rounded=0;orthogonalLoop=1;jettySize=auto;html=1;entryX=0.5;entryY=1;entryDx=0;entryDy=0;" edge="1" parent="1" source="c9Lt9Gjsiru4E0_DWyST-193" target="c9Lt9Gjsiru4E0_DWyST-183">
          <mxGeometry relative="1" as="geometry" />
        </mxCell>
        <mxCell id="c9Lt9Gjsiru4E0_DWyST-193" value="notifier" style="rounded=0;whiteSpace=wrap;html=1;" vertex="1" parent="1">
          <mxGeometry x="-420" y="880.0000000000001" width="120" height="60" as="geometry" />
        </mxCell>
        <mxCell id="c9Lt9Gjsiru4E0_DWyST-206" style="edgeStyle=orthogonalEdgeStyle;rounded=0;orthogonalLoop=1;jettySize=auto;html=1;entryX=0.02;entryY=0.339;entryDx=0;entryDy=0;entryPerimeter=0;" edge="1" parent="1" source="c9Lt9Gjsiru4E0_DWyST-194" target="c9Lt9Gjsiru4E0_DWyST-192">
          <mxGeometry relative="1" as="geometry">
            <Array as="points">
              <mxPoint x="-410" y="1050" />
              <mxPoint x="-410" y="1050" />
            </Array>
          </mxGeometry>
        </mxCell>
        <mxCell id="c9Lt9Gjsiru4E0_DWyST-194" value="Database" style="strokeWidth=2;html=1;shape=mxgraph.flowchart.database;whiteSpace=wrap;" vertex="1" parent="1">
          <mxGeometry x="-590" y="1002.5" width="120" height="115" as="geometry" />
        </mxCell>
        <mxCell id="c9Lt9Gjsiru4E0_DWyST-198" style="edgeStyle=orthogonalEdgeStyle;rounded=0;orthogonalLoop=1;jettySize=auto;html=1;entryX=0.993;entryY=0.686;entryDx=0;entryDy=0;entryPerimeter=0;" edge="1" parent="1" source="c9Lt9Gjsiru4E0_DWyST-183" target="c9Lt9Gjsiru4E0_DWyST-180">
          <mxGeometry relative="1" as="geometry" />
        </mxCell>
        <mxCell id="c9Lt9Gjsiru4E0_DWyST-199" style="edgeStyle=orthogonalEdgeStyle;rounded=0;orthogonalLoop=1;jettySize=auto;html=1;entryX=0;entryY=0.5;entryDx=0;entryDy=0;" edge="1" parent="1" source="c9Lt9Gjsiru4E0_DWyST-183" target="c9Lt9Gjsiru4E0_DWyST-189">
          <mxGeometry relative="1" as="geometry" />
        </mxCell>
        <mxCell id="c9Lt9Gjsiru4E0_DWyST-209" value="&lt;font style=&quot;font-size: 7px;&quot;&gt;Real-time updates&lt;/font&gt;" style="text;html=1;strokeColor=none;fillColor=none;align=center;verticalAlign=middle;whiteSpace=wrap;rounded=0;" vertex="1" parent="1">
          <mxGeometry x="-690" y="765" width="70" height="30" as="geometry" />
        </mxCell>
        <mxCell id="c9Lt9Gjsiru4E0_DWyST-210" value="&lt;font style=&quot;font-size: 7px;&quot;&gt;send messages&lt;/font&gt;" style="text;html=1;strokeColor=none;fillColor=none;align=center;verticalAlign=middle;whiteSpace=wrap;rounded=0;" vertex="1" parent="1">
          <mxGeometry x="-504" y="752.5" width="70" height="30" as="geometry" />
        </mxCell>
        <mxCell id="c9Lt9Gjsiru4E0_DWyST-211" value="&lt;font style=&quot;font-size: 7px;&quot;&gt;send commands&lt;/font&gt;" style="text;html=1;strokeColor=none;fillColor=none;align=center;verticalAlign=middle;whiteSpace=wrap;rounded=0;" vertex="1" parent="1">
          <mxGeometry x="-300" y="755.99" width="70" height="30" as="geometry" />
        </mxCell>
        <mxCell id="c9Lt9Gjsiru4E0_DWyST-212" value="&lt;font style=&quot;font-size: 7px;&quot;&gt;send published events&lt;/font&gt;" style="text;html=1;strokeColor=none;fillColor=none;align=center;verticalAlign=middle;whiteSpace=wrap;rounded=0;" vertex="1" parent="1">
          <mxGeometry x="-270" y="807.43" width="77" height="30" as="geometry" />
        </mxCell>
        <mxCell id="c9Lt9Gjsiru4E0_DWyST-213" value="&lt;font style=&quot;font-size: 7px;&quot;&gt;route commands&lt;/font&gt;" style="text;html=1;strokeColor=none;fillColor=none;align=center;verticalAlign=middle;whiteSpace=wrap;rounded=0;" vertex="1" parent="1">
          <mxGeometry x="-153" y="824.87" width="70" height="30" as="geometry" />
        </mxCell>
        <mxCell id="c9Lt9Gjsiru4E0_DWyST-214" value="&lt;font style=&quot;font-size: 7px;&quot;&gt;publish generated events&lt;/font&gt;" style="text;html=1;strokeColor=none;fillColor=none;align=center;verticalAlign=middle;whiteSpace=wrap;rounded=0;" vertex="1" parent="1">
          <mxGeometry x="-190" y="1036" width="90" height="30" as="geometry" />
        </mxCell>
        <mxCell id="c9Lt9Gjsiru4E0_DWyST-216" value="&lt;font style=&quot;font-size: 7px;&quot;&gt;update&amp;nbsp; attributes&lt;/font&gt;" style="text;html=1;strokeColor=none;fillColor=none;align=center;verticalAlign=middle;whiteSpace=wrap;rounded=0;" vertex="1" parent="1">
          <mxGeometry x="-434" y="1052" width="90" height="30" as="geometry" />
        </mxCell>
        <mxCell id="c9Lt9Gjsiru4E0_DWyST-217" value="&lt;font style=&quot;font-size: 7px;&quot;&gt;query responses&lt;/font&gt;" style="text;html=1;strokeColor=none;fillColor=none;align=center;verticalAlign=middle;whiteSpace=wrap;rounded=0;" vertex="1" parent="1">
          <mxGeometry x="-434" y="1026" width="90" height="30" as="geometry" />
        </mxCell>
        <mxCell id="c9Lt9Gjsiru4E0_DWyST-218" value="&lt;font style=&quot;font-size: 7px;&quot;&gt;Event delivery&lt;/font&gt;" style="text;html=1;strokeColor=none;fillColor=none;align=center;verticalAlign=middle;whiteSpace=wrap;rounded=0;" vertex="1" parent="1">
          <mxGeometry x="-556" y="886" width="77" height="30" as="geometry" />
        </mxCell>
        <mxCell id="c9Lt9Gjsiru4E0_DWyST-219" value="Questions:&lt;br&gt;!. include pub-sub? Would event handler be publisher and notifier be subscriber?&lt;br&gt;2. a local polling script listens for updates from API, but so does the interface?" style="rounded=0;whiteSpace=wrap;html=1;fillColor=#a20025;fontColor=#ffffff;strokeColor=#6F0000;" vertex="1" parent="1">
          <mxGeometry x="-610" y="160" width="201" height="170" as="geometry" />
        </mxCell>
        <mxCell id="c9Lt9Gjsiru4E0_DWyST-342" style="edgeStyle=orthogonalEdgeStyle;rounded=0;orthogonalLoop=1;jettySize=auto;html=1;exitX=1;exitY=0.5;exitDx=0;exitDy=0;" edge="1" parent="1" source="c9Lt9Gjsiru4E0_DWyST-225">
          <mxGeometry relative="1" as="geometry">
            <mxPoint x="660" y="290" as="targetPoint" />
            <Array as="points">
              <mxPoint x="570" y="360" />
              <mxPoint x="570" y="340" />
              <mxPoint x="660" y="340" />
            </Array>
          </mxGeometry>
        </mxCell>
        <mxCell id="c9Lt9Gjsiru4E0_DWyST-359" style="edgeStyle=orthogonalEdgeStyle;rounded=0;orthogonalLoop=1;jettySize=auto;html=1;entryX=0.75;entryY=1;entryDx=0;entryDy=0;" edge="1" parent="1" source="c9Lt9Gjsiru4E0_DWyST-225" target="c9Lt9Gjsiru4E0_DWyST-314">
          <mxGeometry relative="1" as="geometry" />
        </mxCell>
        <mxCell id="c9Lt9Gjsiru4E0_DWyST-225" value="Event Hander" style="rounded=0;whiteSpace=wrap;html=1;" vertex="1" parent="1">
          <mxGeometry x="400" y="340" width="90" height="40" as="geometry" />
        </mxCell>
        <mxCell id="c9Lt9Gjsiru4E0_DWyST-338" style="edgeStyle=orthogonalEdgeStyle;rounded=0;orthogonalLoop=1;jettySize=auto;html=1;" edge="1" parent="1" source="c9Lt9Gjsiru4E0_DWyST-226" target="c9Lt9Gjsiru4E0_DWyST-225">
          <mxGeometry relative="1" as="geometry" />
        </mxCell>
        <mxCell id="c9Lt9Gjsiru4E0_DWyST-226" value="Command Handler" style="rounded=0;whiteSpace=wrap;html=1;" vertex="1" parent="1">
          <mxGeometry x="400" y="270" width="90" height="40" as="geometry" />
        </mxCell>
        <mxCell id="c9Lt9Gjsiru4E0_DWyST-339" style="edgeStyle=orthogonalEdgeStyle;rounded=0;orthogonalLoop=1;jettySize=auto;html=1;" edge="1" parent="1" source="c9Lt9Gjsiru4E0_DWyST-227" target="c9Lt9Gjsiru4E0_DWyST-229">
          <mxGeometry relative="1" as="geometry">
            <Array as="points">
              <mxPoint x="445" y="170" />
              <mxPoint x="410" y="170" />
            </Array>
          </mxGeometry>
        </mxCell>
        <mxCell id="c9Lt9Gjsiru4E0_DWyST-227" value="Query Handler" style="rounded=0;whiteSpace=wrap;html=1;" vertex="1" parent="1">
          <mxGeometry x="400" y="200" width="90" height="40" as="geometry" />
        </mxCell>
        <mxCell id="c9Lt9Gjsiru4E0_DWyST-228" value="" style="group" vertex="1" connectable="0" parent="1">
          <mxGeometry x="349.9974513274336" y="-60" width="120.00254867256638" height="210" as="geometry" />
        </mxCell>
        <mxCell id="c9Lt9Gjsiru4E0_DWyST-229" value="" style="rounded=0;whiteSpace=wrap;html=1;" vertex="1" parent="c9Lt9Gjsiru4E0_DWyST-228">
          <mxGeometry x="0.0025486725663768084" width="120" height="210" as="geometry" />
        </mxCell>
        <mxCell id="c9Lt9Gjsiru4E0_DWyST-230" value="&lt;font style=&quot;font-size: 10px;&quot;&gt;Services&lt;/font&gt;" style="text;html=1;align=center;verticalAlign=middle;whiteSpace=wrap;rounded=0;" vertex="1" parent="c9Lt9Gjsiru4E0_DWyST-228">
          <mxGeometry y="0.0049999999999954525" width="74.33628318584071" height="24.75" as="geometry" />
        </mxCell>
        <mxCell id="c9Lt9Gjsiru4E0_DWyST-231" value="&lt;font style=&quot;font-size: 9px;&quot;&gt;Auth Services&lt;/font&gt;" style="rounded=0;whiteSpace=wrap;html=1;" vertex="1" parent="c9Lt9Gjsiru4E0_DWyST-228">
          <mxGeometry x="16.002548672566377" y="50" width="88" height="40" as="geometry" />
        </mxCell>
        <mxCell id="c9Lt9Gjsiru4E0_DWyST-232" value="&lt;font style=&quot;font-size: 9px;&quot;&gt;Media Services&lt;/font&gt;" style="rounded=0;whiteSpace=wrap;html=1;" vertex="1" parent="c9Lt9Gjsiru4E0_DWyST-228">
          <mxGeometry x="16.002548672566377" y="100" width="88" height="40" as="geometry" />
        </mxCell>
        <mxCell id="c9Lt9Gjsiru4E0_DWyST-233" value="&lt;font style=&quot;font-size: 9px;&quot;&gt;User Services&lt;/font&gt;" style="rounded=0;whiteSpace=wrap;html=1;" vertex="1" parent="c9Lt9Gjsiru4E0_DWyST-228">
          <mxGeometry x="16.002548672566377" y="150" width="88" height="40" as="geometry" />
        </mxCell>
        <mxCell id="c9Lt9Gjsiru4E0_DWyST-234" style="edgeStyle=orthogonalEdgeStyle;rounded=0;orthogonalLoop=1;jettySize=auto;html=1;exitX=0.5;exitY=1;exitDx=0;exitDy=0;" edge="1" parent="c9Lt9Gjsiru4E0_DWyST-228" source="c9Lt9Gjsiru4E0_DWyST-229" target="c9Lt9Gjsiru4E0_DWyST-229">
          <mxGeometry relative="1" as="geometry" />
        </mxCell>
        <mxCell id="c9Lt9Gjsiru4E0_DWyST-317" style="edgeStyle=orthogonalEdgeStyle;rounded=0;orthogonalLoop=1;jettySize=auto;html=1;entryX=0.542;entryY=-0.013;entryDx=0;entryDy=0;entryPerimeter=0;" edge="1" parent="1" source="c9Lt9Gjsiru4E0_DWyST-235" target="cRrsICpqmRjQUYzMtv-0-15">
          <mxGeometry relative="1" as="geometry">
            <Array as="points">
              <mxPoint x="60" y="-10" />
              <mxPoint x="-139" y="-10" />
              <mxPoint x="-139" y="10" />
              <mxPoint x="-138" y="10" />
            </Array>
          </mxGeometry>
        </mxCell>
        <mxCell id="c9Lt9Gjsiru4E0_DWyST-322" style="edgeStyle=orthogonalEdgeStyle;rounded=0;orthogonalLoop=1;jettySize=auto;html=1;entryX=0;entryY=0.5;entryDx=0;entryDy=0;" edge="1" parent="1" source="c9Lt9Gjsiru4E0_DWyST-235" target="c9Lt9Gjsiru4E0_DWyST-313">
          <mxGeometry relative="1" as="geometry">
            <mxPoint x="172.63999999999987" y="33.16000000000008" as="targetPoint" />
          </mxGeometry>
        </mxCell>
        <mxCell id="c9Lt9Gjsiru4E0_DWyST-235" value="" style="rounded=0;whiteSpace=wrap;html=1;" vertex="1" parent="1">
          <mxGeometry y="40" width="120" height="165" as="geometry" />
        </mxCell>
        <mxCell id="c9Lt9Gjsiru4E0_DWyST-236" value="API Gateway" style="text;html=1;strokeColor=none;fillColor=none;align=center;verticalAlign=middle;whiteSpace=wrap;rounded=0;" vertex="1" parent="c9Lt9Gjsiru4E0_DWyST-235">
          <mxGeometry x="5.667451327433628" y="4.125" width="74.33628318584071" height="24.75" as="geometry" />
        </mxCell>
        <mxCell id="c9Lt9Gjsiru4E0_DWyST-237" value="" style="rounded=0;whiteSpace=wrap;html=1;" vertex="1" parent="c9Lt9Gjsiru4E0_DWyST-235">
          <mxGeometry x="12" y="45.375" width="96" height="94.875" as="geometry" />
        </mxCell>
        <mxCell id="c9Lt9Gjsiru4E0_DWyST-238" value="&lt;font size=&quot;1&quot;&gt;Web Server&lt;/font&gt;" style="text;html=1;strokeColor=none;fillColor=none;align=center;verticalAlign=middle;whiteSpace=wrap;rounded=0;" vertex="1" parent="c9Lt9Gjsiru4E0_DWyST-235">
          <mxGeometry x="12" y="45.38" width="68" height="24.75" as="geometry" />
        </mxCell>
        <mxCell id="c9Lt9Gjsiru4E0_DWyST-239" value="" style="ellipse;shape=cloud;whiteSpace=wrap;html=1;fillColor=#a20025;fontColor=#ffffff;strokeColor=#6F0000;" vertex="1" parent="c9Lt9Gjsiru4E0_DWyST-235">
          <mxGeometry x="20" y="70.125" width="80" height="63.9375" as="geometry" />
        </mxCell>
        <mxCell id="c9Lt9Gjsiru4E0_DWyST-240" value="&lt;font style=&quot;font-size: 10px;&quot;&gt;AWS WebSocket API&lt;/font&gt;" style="text;html=1;strokeColor=none;fillColor=none;align=center;verticalAlign=middle;whiteSpace=wrap;rounded=0;" vertex="1" parent="c9Lt9Gjsiru4E0_DWyST-235">
          <mxGeometry x="37.6" y="91.36874999999999" width="48" height="24.75" as="geometry" />
        </mxCell>
        <mxCell id="c9Lt9Gjsiru4E0_DWyST-323" style="edgeStyle=orthogonalEdgeStyle;rounded=0;orthogonalLoop=1;jettySize=auto;html=1;" edge="1" parent="1" source="c9Lt9Gjsiru4E0_DWyST-313" target="c9Lt9Gjsiru4E0_DWyST-314">
          <mxGeometry relative="1" as="geometry" />
        </mxCell>
        <mxCell id="c9Lt9Gjsiru4E0_DWyST-313" value="interface" style="rounded=0;whiteSpace=wrap;html=1;" vertex="1" parent="1">
          <mxGeometry x="170" y="-40" width="120" height="60" as="geometry" />
        </mxCell>
        <mxCell id="c9Lt9Gjsiru4E0_DWyST-326" style="edgeStyle=orthogonalEdgeStyle;rounded=0;orthogonalLoop=1;jettySize=auto;html=1;entryX=0;entryY=0.5;entryDx=0;entryDy=0;" edge="1" parent="1" source="c9Lt9Gjsiru4E0_DWyST-314" target="c9Lt9Gjsiru4E0_DWyST-229">
          <mxGeometry relative="1" as="geometry" />
        </mxCell>
        <mxCell id="c9Lt9Gjsiru4E0_DWyST-329" style="edgeStyle=orthogonalEdgeStyle;rounded=0;orthogonalLoop=1;jettySize=auto;html=1;entryX=0.5;entryY=0;entryDx=0;entryDy=0;" edge="1" parent="1" source="c9Lt9Gjsiru4E0_DWyST-314" target="c9Lt9Gjsiru4E0_DWyST-46">
          <mxGeometry relative="1" as="geometry">
            <Array as="points">
              <mxPoint x="230" y="250" />
              <mxPoint x="90" y="250" />
            </Array>
          </mxGeometry>
        </mxCell>
        <mxCell id="c9Lt9Gjsiru4E0_DWyST-314" value="message broker" style="rounded=0;whiteSpace=wrap;html=1;" vertex="1" parent="1">
          <mxGeometry x="170" y="140" width="120" height="60" as="geometry" />
        </mxCell>
        <mxCell id="c9Lt9Gjsiru4E0_DWyST-316" style="edgeStyle=orthogonalEdgeStyle;rounded=0;orthogonalLoop=1;jettySize=auto;html=1;" edge="1" parent="1" source="cRrsICpqmRjQUYzMtv-0-15">
          <mxGeometry relative="1" as="geometry">
            <mxPoint x="80" y="40" as="targetPoint" />
            <Array as="points">
              <mxPoint x="-200" y="-40" />
              <mxPoint x="80" y="-40" />
            </Array>
          </mxGeometry>
        </mxCell>
        <mxCell id="c9Lt9Gjsiru4E0_DWyST-318" value="&lt;font style=&quot;font-size: 7px;&quot;&gt;Establish Connection&lt;/font&gt;" style="text;html=1;strokeColor=none;fillColor=none;align=center;verticalAlign=middle;whiteSpace=wrap;rounded=0;" vertex="1" parent="1">
          <mxGeometry x="-690" y="729.99" width="70" height="30" as="geometry" />
        </mxCell>
        <mxCell id="c9Lt9Gjsiru4E0_DWyST-324" value="&lt;font style=&quot;font-size: 7px;&quot;&gt;send messages&lt;/font&gt;" style="text;html=1;strokeColor=none;fillColor=none;align=center;verticalAlign=middle;whiteSpace=wrap;rounded=0;" vertex="1" parent="1">
          <mxGeometry x="100" y="-35" width="70" height="30" as="geometry" />
        </mxCell>
        <mxCell id="c9Lt9Gjsiru4E0_DWyST-325" value="&lt;font style=&quot;font-size: 7px;&quot;&gt;send commands&lt;/font&gt;" style="text;html=1;strokeColor=none;fillColor=none;align=center;verticalAlign=middle;whiteSpace=wrap;rounded=0;" vertex="1" parent="1">
          <mxGeometry x="226" y="70" width="70" height="30" as="geometry" />
        </mxCell>
        <mxCell id="c9Lt9Gjsiru4E0_DWyST-327" value="&lt;font style=&quot;font-size: 7px;&quot;&gt;route commands&lt;/font&gt;" style="text;html=1;strokeColor=none;fillColor=none;align=center;verticalAlign=middle;whiteSpace=wrap;rounded=0;" vertex="1" parent="1">
          <mxGeometry x="286" y="163" width="70" height="30" as="geometry" />
        </mxCell>
        <mxCell id="c9Lt9Gjsiru4E0_DWyST-330" value="&lt;font style=&quot;font-size: 7px;&quot;&gt;send published events&lt;/font&gt;" style="text;html=1;strokeColor=none;fillColor=none;align=center;verticalAlign=middle;whiteSpace=wrap;rounded=0;" vertex="1" parent="1">
          <mxGeometry x="88" y="223.99999999999994" width="77" height="30" as="geometry" />
        </mxCell>
        <mxCell id="c9Lt9Gjsiru4E0_DWyST-333" value="&lt;font style=&quot;font-size: 7px;&quot;&gt;Event delivery&lt;/font&gt;" style="text;html=1;strokeColor=none;fillColor=none;align=center;verticalAlign=middle;whiteSpace=wrap;rounded=0;" vertex="1" parent="1">
          <mxGeometry x="-7" y="240" width="77" height="30" as="geometry" />
        </mxCell>
        <mxCell id="c9Lt9Gjsiru4E0_DWyST-334" value="&lt;font style=&quot;font-size: 7px;&quot;&gt;preferences update&lt;/font&gt;" style="text;html=1;strokeColor=none;fillColor=none;align=center;verticalAlign=middle;whiteSpace=wrap;rounded=0;" vertex="1" parent="1">
          <mxGeometry x="149" y="296" width="77" height="30" as="geometry" />
        </mxCell>
        <mxCell id="c9Lt9Gjsiru4E0_DWyST-337" style="edgeStyle=orthogonalEdgeStyle;rounded=0;orthogonalLoop=1;jettySize=auto;html=1;entryX=0;entryY=0.5;entryDx=0;entryDy=0;" edge="1" parent="1" source="c9Lt9Gjsiru4E0_DWyST-229" target="c9Lt9Gjsiru4E0_DWyST-226">
          <mxGeometry relative="1" as="geometry">
            <Array as="points">
              <mxPoint x="370" y="290" />
            </Array>
          </mxGeometry>
        </mxCell>
        <mxCell id="c9Lt9Gjsiru4E0_DWyST-345" style="edgeStyle=orthogonalEdgeStyle;rounded=0;orthogonalLoop=1;jettySize=auto;html=1;entryX=1;entryY=0.5;entryDx=0;entryDy=0;exitX=0;exitY=0.5;exitDx=0;exitDy=0;" edge="1" parent="1" source="c9Lt9Gjsiru4E0_DWyST-351" target="c9Lt9Gjsiru4E0_DWyST-227">
          <mxGeometry relative="1" as="geometry">
            <Array as="points">
              <mxPoint x="510" y="130" />
              <mxPoint x="510" y="220" />
            </Array>
          </mxGeometry>
        </mxCell>
        <mxCell id="c9Lt9Gjsiru4E0_DWyST-360" value="&lt;font style=&quot;font-size: 7px;&quot;&gt;publish generated events&lt;/font&gt;" style="text;html=1;strokeColor=none;fillColor=none;align=center;verticalAlign=middle;whiteSpace=wrap;rounded=0;" vertex="1" parent="1">
          <mxGeometry x="259" y="335" width="90" height="30" as="geometry" />
        </mxCell>
        <mxCell id="c9Lt9Gjsiru4E0_DWyST-361" value="&lt;font style=&quot;font-size: 7px;&quot;&gt;store preferences&lt;/font&gt;" style="text;html=1;strokeColor=none;fillColor=none;align=center;verticalAlign=middle;whiteSpace=wrap;rounded=0;" vertex="1" parent="1">
          <mxGeometry x="356" y="384" width="90" height="30" as="geometry" />
        </mxCell>
        <mxCell id="c9Lt9Gjsiru4E0_DWyST-362" value="&lt;font style=&quot;font-size: 7px;&quot;&gt;get recommendation&lt;/font&gt;" style="text;html=1;strokeColor=none;fillColor=none;align=center;verticalAlign=middle;whiteSpace=wrap;rounded=0;" vertex="1" parent="1">
          <mxGeometry x="360" y="410" width="90" height="30" as="geometry" />
        </mxCell>
        <mxCell id="c9Lt9Gjsiru4E0_DWyST-363" value="EDA&lt;br&gt;CQRS" style="text;html=1;strokeColor=#006EAF;fillColor=#1ba1e2;align=center;verticalAlign=middle;whiteSpace=wrap;rounded=0;fontColor=#ffffff;" vertex="1" parent="1">
          <mxGeometry x="291" y="270" width="60" height="30" as="geometry" />
        </mxCell>
      </root>
    </mxGraphModel>
  </diagram>
</mxfile>
